<?xml version="1.0" standalone="no"?>
<!DOCTYPE svg PUBLIC "-//W3C//DTD SVG 20010904//EN"
 "http://www.w3.org/TR/2001/REC-SVG-20010904/DTD/svg10.dtd">
<svg version="1.0" xmlns="http://www.w3.org/2000/svg"
 width="2000.000000pt" height="1000.000000pt" viewBox="0 0 2000.000000 1000.000000"
 preserveAspectRatio="xMidYMid meet">

<g transform="translate(0.000000,1000.000000) scale(0.100000,-0.100000)"
fill="#000000" stroke="none">
<path d="M3665 8703 c-54 -7 -130 -36 -159 -60 -75 -62 -96 -141 -96 -354 0
-231 32 -315 144 -373 l60 -31 280 -6 c155 -4 292 -10 306 -14 25 -9 78 -41
118 -72 37 -29 69 -85 81 -141 8 -38 11 -375 11 -1158 0 -1150 2 -1211 42
-1289 23 -44 67 -94 83 -95 6 0 24 -8 40 -18 27 -15 63 -17 325 -17 277 0 297
1 335 20 79 41 103 60 131 104 l29 46 5 1200 c5 1169 6 1201 25 1240 30 62 74
114 119 142 71 45 122 53 368 53 238 0 306 8 367 43 49 28 72 53 98 107 21 42
22 59 23 259 0 202 -1 216 -22 260 -13 25 -40 63 -62 83 -72 68 -32 66 -1401
71 -671 2 -1233 2 -1250 0z"/>
<path d="M2039 8685 c-84 -23 -138 -69 -194 -165 -20 -35 -20 -47 -20 -1635
l0 -1600 29 -50 c40 -67 94 -115 161 -143 52 -21 69 -22 303 -22 235 1 250 2
300 24 72 31 132 83 162 142 l25 49 0 1600 0 1600 -25 49 c-35 69 -108 129
-181 150 -75 20 -486 22 -560 1z"/>
<path d="M7161 8685 c-76 -18 -117 -62 -142 -151 -18 -65 -19 -112 -19 -851 0
-670 2 -791 15 -848 19 -79 42 -114 98 -146 40 -23 50 -24 237 -24 188 0 196
1 233 24 51 31 83 83 97 156 17 89 9 1666 -8 1718 -21 59 -83 112 -149 126
-75 15 -294 13 -362 -4z"/>
<path d="M9173 8684 c-106 -15 -239 -56 -303 -94 -8 -4 -42 -23 -75 -40 -33
-18 -62 -35 -65 -39 -3 -4 -25 -21 -50 -39 -67 -48 -240 -244 -240 -273 0 -4
-14 -31 -30 -60 -63 -106 -98 -236 -112 -410 -13 -163 0 -367 31 -474 24 -86
50 -158 59 -165 4 -3 20 -32 36 -65 49 -101 143 -212 263 -313 50 -41 250
-152 275 -152 7 0 35 -9 63 -19 105 -40 171 -45 755 -50 l565 -6 65 -43 c75
-49 107 -92 132 -171 23 -73 22 -94 -4 -171 -24 -73 -82 -139 -158 -180 l-45
-25 -915 -5 -915 -5 -45 -22 c-50 -24 -105 -78 -141 -138 -22 -38 -23 -48 -24
-236 0 -194 0 -196 28 -250 32 -65 86 -114 159 -145 l53 -23 1030 0 c567 0
1050 4 1075 9 127 23 167 33 193 46 16 8 36 14 45 15 31 0 211 103 288 163 41
33 106 99 145 147 74 93 174 274 185 336 4 21 11 47 17 57 13 26 37 241 37
336 0 94 -24 310 -37 336 -6 10 -13 34 -17 53 -11 57 -111 246 -169 318 -59
73 -114 128 -187 185 -54 43 -246 144 -298 158 -20 5 -64 17 -97 26 -51 14
-142 18 -635 24 -334 4 -591 12 -612 18 -54 14 -126 69 -167 127 -36 50 -36
51 -36 155 0 104 0 105 36 155 50 71 119 120 187 134 38 8 320 11 903 11 553
0 865 4 897 10 64 14 138 64 177 120 40 58 55 133 55 280 0 64 -5 143 -12 176
-21 107 -102 191 -211 220 -75 20 -2016 18 -2154 -2z"/>
<path d="M2211 4230 c-18 -10 -43 -28 -56 -40 -65 -61 -70 -296 -8 -371 56
-66 31 -63 648 -69 425 -4 567 -9 590 -18 92 -40 136 -161 89 -247 -38 -72
-130 -108 -319 -125 -55 -5 -116 -14 -135 -19 -19 -5 -75 -12 -123 -16 -49 -4
-103 -11 -120 -16 -18 -5 -79 -14 -137 -20 -58 -5 -121 -14 -140 -19 -19 -5
-80 -14 -136 -19 -57 -6 -119 -19 -145 -30 -113 -50 -119 -77 -119 -583 0
-249 4 -417 11 -450 14 -70 50 -121 102 -144 39 -18 81 -19 902 -19 l860 0 35
22 c19 12 46 37 60 55 23 30 25 44 28 147 2 62 1 128 -2 146 -8 41 -65 101
-114 117 -27 9 -187 14 -592 18 -623 6 -581 0 -640 82 -40 54 -43 137 -7 186
55 73 104 92 302 117 66 8 149 19 185 25 148 22 349 50 405 55 33 4 76 10 95
16 20 5 76 13 125 18 50 5 107 15 128 23 44 17 91 60 107 97 7 18 10 174 8
507 l-3 480 -24 36 c-14 20 -44 45 -68 57 -43 21 -49 21 -901 20 -820 0 -858
-1 -891 -19z"/>
<path d="M4583 4231 c-49 -27 -62 -41 -86 -85 l-22 -41 0 -965 c0 -1093 -6
-1012 83 -1080 l45 -35 871 0 871 0 38 24 c21 13 50 42 65 64 26 39 27 47 27
167 l0 127 -37 45 c-63 77 -70 78 -664 78 -280 1 -529 5 -554 9 -88 18 -142
109 -125 213 10 55 66 116 120 128 22 5 243 10 490 10 480 0 535 5 591 49 58
45 68 75 68 201 1 107 -1 118 -24 150 -29 40 -54 61 -90 74 -14 6 -250 12
-525 16 -330 4 -509 10 -525 17 -14 6 -42 28 -62 48 -40 42 -53 93 -42 164 8
47 66 114 112 126 15 4 277 10 582 14 384 4 563 10 581 18 14 6 42 30 62 54
43 49 51 91 45 217 -3 74 -8 93 -30 126 -15 21 -45 49 -68 62 l-42 24 -862 -1
c-812 0 -863 -1 -893 -18z"/>
<path d="M6963 4231 c-52 -29 -65 -43 -89 -96 l-24 -50 0 -948 c0 -934 0 -949
20 -993 23 -49 40 -69 85 -99 25 -16 52 -20 157 -23 190 -6 228 1 283 51 76
70 75 53 75 827 0 371 3 692 6 713 9 52 71 113 125 122 109 19 197 -35 218
-133 7 -36 11 -270 11 -725 0 -427 4 -688 11 -717 11 -49 35 -80 89 -113 l35
-22 617 0 616 0 44 30 c23 17 53 49 65 70 l23 40 0 970 0 970 -23 40 c-12 21
-42 54 -65 72 l-44 33 -166 0 c-151 0 -171 -2 -206 -21 -52 -27 -73 -54 -91
-113 -13 -42 -15 -150 -15 -722 0 -442 -4 -690 -11 -723 -15 -69 -72 -127
-132 -133 -23 -2 -61 -1 -84 2 -56 9 -113 65 -124 123 -4 23 -8 345 -9 715 0
593 -2 681 -16 730 -18 62 -44 94 -99 123 -33 18 -66 19 -642 18 -568 0 -610
-1 -640 -18z"/>
<path d="M9797 4225 c-21 -12 -50 -39 -65 -60 l-27 -38 -3 -955 c-3 -931 1
-1062 28 -1062 5 0 11 -8 14 -17 3 -10 25 -29 48 -43 40 -23 54 -25 195 -28
145 -4 155 -3 207 21 40 18 62 37 83 69 l28 43 5 730 c6 817 2 773 78 825 29
20 48 25 102 25 79 0 127 -26 163 -90 l22 -40 5 -730 5 -730 22 -36 c13 -19
42 -46 65 -60 l43 -24 610 0 c605 0 610 0 650 22 22 11 51 36 65 55 l25 33 0
1000 0 1000 -29 38 c-52 68 -83 77 -267 77 -134 0 -166 -3 -192 -17 -43 -24
-77 -54 -77 -69 0 -6 -7 -17 -15 -24 -13 -11 -15 -104 -15 -729 l0 -716 -24
-50 c-30 -65 -76 -104 -124 -107 -102 -5 -153 17 -195 82 l-22 35 -5 731 -5
730 -28 42 c-15 23 -45 53 -67 67 l-40 25 -612 -1 -613 -1 -38 -23z"/>
<path d="M12649 4229 c-47 -25 -72 -55 -92 -107 -15 -38 -17 -133 -17 -990 l0
-947 24 -52 c18 -37 37 -60 68 -80 41 -26 50 -28 188 -31 86 -2 162 0 186 7
56 15 118 70 132 119 9 29 12 288 12 989 0 1016 1 1001 -48 1054 -49 52 -81
59 -254 58 -142 0 -168 -3 -199 -20z"/>
<path d="M13589 4217 c-52 -39 -69 -91 -69 -215 0 -212 43 -252 278 -252 198
0 269 -24 311 -104 21 -41 21 -47 24 -771 l2 -730 23 -37 c13 -20 40 -47 60
-60 35 -22 46 -23 222 -23 204 0 220 4 272 70 l23 29 6 731 c3 401 9 744 13
760 11 41 81 111 120 120 17 3 108 10 201 14 196 9 219 17 259 85 24 41 26 53
26 166 0 112 -2 125 -26 165 -15 27 -40 51 -65 64 -39 21 -50 21 -839 21
l-798 0 -43 -33z"/>
<path d="M15828 4227 c-45 -26 -85 -87 -93 -141 -3 -22 -5 -466 -3 -986 l3
-945 27 -41 c14 -23 44 -52 65 -65 34 -21 52 -24 184 -27 171 -4 211 4 268 56
55 50 61 85 61 388 0 163 4 259 13 291 23 89 108 143 201 128 52 -9 77 -25
113 -71 l28 -37 5 -306 5 -306 28 -42 c15 -24 46 -55 69 -70 41 -28 43 -28
212 -28 187 0 207 5 257 68 48 63 49 69 49 1042 -1 979 -2 998 -52 1052 -51
55 -84 63 -259 63 -134 0 -166 -3 -192 -17 -50 -28 -67 -45 -90 -88 -20 -38
-22 -59 -27 -345 -5 -295 -6 -306 -27 -333 -37 -47 -72 -69 -118 -75 -62 -7
-110 5 -146 35 -60 51 -63 68 -69 399 -5 300 -5 301 -30 338 -14 20 -44 48
-67 61 -40 24 -48 25 -210 24 -151 -1 -172 -3 -205 -22z"/>
</g>
</svg>
